PathFileType	4	(X/Y/Z)	18_2_rein_60_p1_0-756.trc
DataRate	CameraRate	NumFrames	NumMarkers	Units	OrigDataRate	OrigDataStartFrame	OrigNumFrames
59.0	59.0	7	27	m	59.0	567	757
Frame#	Time	RHip			RKnee			RAnkle			RBigToe			RSmallToe			RHeel			LHip			LKnee			LAnkle			LBigToe			LSmallToe			LHeel			Neck			Head			Nose			RShoulder			RElbow			RWrist			RThumb			RIndex			RPinky			LShoulder			LElbow			LWrist			LThumb			LIndex			LPinky			
		X1	Y1	Z1	X2	Y2	Z2	X3	Y3	Z3	X4	Y4	Z4	X5	Y5	Z5	X6	Y6	Z6	X7	Y7	Z7	X8	Y8	Z8	X9	Y9	Z9	X10	Y10	Z10	X11	Y11	Z11	X12	Y12	Z12	X13	Y13	Z13	X14	Y14	Z14	X15	Y15	Z15	X16	Y16	Z16	X17	Y17	Z17	X18	Y18	Z18	X19	Y19	Z19	X20	Y20	Z20	X21	Y21	Z21	X22	Y22	Z22	X23	Y23	Z23	X24	Y24	Z24	X25	Y25	Z25	X26	Y26	Z26	X27	Y27	Z27	
567	9.610169491525424	0.27718289541339614	0.3911437626161866	1.156843148055849	0.2559367544920358	0.5010629102423118	1.5942023424007454	0.2289346948432104	0.6373973121238149	2.0333778354512106	0.21733327992340779	0.3687381777618635	2.0238963445963036	0.27354762904896573	0.432104905653015	2.047953736380632	0.21654779579253766	0.6955390323225985	2.0849715718102173	0.07968941418308312	0.3521519705790377	1.1469181419437255	0.07736750775937595	0.4457778558161444	1.5686612335804566	0.05059967598580547	0.5721419161802631	2.018685577755523	0.06943746354367016	0.34817320969521126	2.0194967241747	0.03683338706114445	0.3616855988701768	2.013280285121027	0.06899349751767793	0.65873332664116	2.0819970215664796	0.19508597443954032	0.2993508874738449	0.5850147476764755	0.20289427770392962	0.24292965218493687	0.3485465214191129	0.19435581058721246	0.22452706791399366	0.4752046079492953	0.34714268877306353	0.3607038028823907	0.7046852321349357	0.37464002051776346	0.41812050785682636	0.9642736540565595	0.3762764642340495	0.39480913387118116	1.2238198983164568	0.32893382946532923	0.3422355401227089	1.3266115624606751	0.3546557670042376	0.3461690807330238	1.3427165496281699	0.37896343865689947	0.38787153745832026	1.3492912932179937	0.0382162348819547	0.3601095859739	0.690260992754332	0.002929361364430767	0.34272867134362356	0.9372721695942977	-0.017162103544827435	0.3400172823424845	1.188676864048185	0.026907535185281498	0.331828939830207	1.298132700919954	0.004394529613413761	0.3436648860939227	1.312261022674121	-0.03087931805419676	0.3522340189279615	1.3076633046418804
568	9.627118644067796	0.27770469981841217	0.3903215450839949	1.1528822508112737	0.25606050245484674	0.5011442106474172	1.5940638236180114	0.2299745847758515	0.6356271663741617	2.028731544883288	0.2182077013269309	0.37117925840078525	2.0288664550752364	0.2735530858639177	0.4314754171809019	2.0476452325614165	0.21229046882108676	0.6811861768696715	2.074764887461937	0.07980627795311683	0.3520219094568342	1.146523673116808	0.07233525315594655	0.46046890009495917	1.5734405842234844	0.05530010009215939	0.5747183160131223	2.019742165423482	0.06947858092743507	0.34846157004726463	2.019411616812718	0.03689001968798663	0.36163137681682384	2.0130567546399036	0.06904528006952877	0.6583709292254718	2.0820275815540206	0.19507672187130162	0.29935567946007513	0.5850166016636883	0.20301139066172053	0.24476872488969756	0.3516682780973576	0.19435340112283275	0.22456596699391004	0.4751968489691461	0.3471246786332251	0.3607181526859945	0.7046911960645572	0.3745698968145006	0.418387794154816	0.9641825585740115	0.38021861935068907	0.40652500725475826	1.2228681120958855	0.32974060439708264	0.3445105353231806	1.33094360522802	0.3588210600366462	0.33231151723738067	1.3390716956478361	0.3791191754643906	0.3881084174966725	1.3494192930648747	0.03818140711754618	0.3599868905747349	0.690377313255938	0.002965170798079417	0.342727345562745	0.9373189319707687	-0.017188659129489196	0.33997174412677733	1.1886860934615926	0.03177958960233746	0.31856696197505263	1.294804406129406	0.004462249544348382	0.3432474257849943	1.312394855042599	-0.03100159667211057	0.3525471010011372	1.3078567344562004
569	9.64406779661017	0.27369021908539853	0.4044831363079253	1.1559546632346531	0.2601193629602834	0.5030447126674165	1.594595085243618	0.23001588442225557	0.6355979929197849	2.0287179119136844	0.21745209659814355	0.36785250218908644	2.0235460269549193	0.27366010031395344	0.430670937318164	2.047409520792423	0.21613406250501535	0.6979853448617237	2.081610246078718	0.07983550198538737	0.3519731116531087	1.1466372281254227	0.07133168858802864	0.4616703439267125	1.577720852657774	0.04945319303357825	0.5731685524174883	2.023585944268527	0.06942493017105082	0.34903357776577615	2.019505813284741	0.036984142981349236	0.36157241470069296	2.0127797906587426	0.06909668442886928	0.65823906429877	2.081589368389214	0.1950628086356985	0.29937891659697824	0.5850141528435713	0.20303709523033375	0.24475053642984926	0.3516958958891129	0.19435726970180986	0.22458102731229887	0.47519536136855134	0.34711137230503103	0.3607526972587614	0.7046871691894979	0.3745545439965742	0.41837722485053447	0.9642242197002422	0.379769451419636	0.4077117035948956	1.226606231751076	0.32906586025175993	0.3420890736319259	1.3265304444231396	0.3589038323175304	0.33216319604674455	1.3390079422632355	0.3792724429718884	0.3881228489041763	1.3494438043922408	0.038202816561243025	0.35994873248033527	0.6902997131228591	0.0028233981637092354	0.3426221862452635	0.9371728571994743	-0.01721493733152357	0.3399610716135579	1.1886866846612203	0.02688154725835538	0.33185728485120247	1.2981369987912514	0.004446272724706029	0.3434826333183324	1.312434825179509	-0.030885637430467905	0.35112265814002624	1.3113559908120502
570	9.661016949152541	0.2771448376409304	0.39104293666098777	1.1568045313798991	0.26018810873524084	0.5032874199801967	1.5946331194310257	0.23000521907384153	0.6357082475014342	2.0288043729555003	0.21742096510517245	0.3682387282885285	2.0236355228087675	0.27372218531470205	0.43115005179555566	2.047625965828503	0.2161078969405776	0.6978645198840439	2.081670605763829	0.07972289618786085	0.35211697829179694	1.14686308199127	0.0722314945726355	0.46050253477514064	1.5735367923694004	0.05063570248554556	0.5720661172622706	2.018238883124381	0.0694589945134688	0.34886907183938454	2.0194282996272914	0.036930332870594336	0.361894139554822	2.0127613038628835	0.06899091014317854	0.6585171835398675	2.0815927009346535	0.19509040807559455	0.29938358300558154	0.585025537085872	0.20304567082347047	0.2447351349856701	0.35168755232206644	0.1943715375431792	0.2245362583290985	0.4751832257323994	0.34711795843424215	0.360732888405147	0.7046876400139435	0.37458152840157344	0.4182318212548259	0.9642298626689189	0.3797708889839062	0.4077480201032739	1.226620414352834	0.32971423873001166	0.34471148242669314	1.3310310893137296	0.3547369218787142	0.34616622307935707	1.3427145922696226	0.37939752918215613	0.3879396397391854	1.3494168348647866	0.03821845629568043	0.35999973809337654	0.6902891859084664	0.0028784878516002646	0.34248946513236883	0.9371879494419213	-0.01716989626495576	0.33983289495861096	1.188637419497887	0.03183655814634419	0.31870697516311497	1.2949562991896275	0.004448964969947582	0.34371035631774527	1.3122720890138755	-0.031090221773382776	0.3525973346844469	1.3078620050775585
571	9.677966101694915	0.28155224474897134	0.3921162637673291	1.1568954299292764	0.2602625780448431	0.5034652836510153	1.5946800909232264	0.22899062724914476	0.6375232952361464	2.033514361280278	0.21745507615712437	0.3682213956831421	2.023683071044691	0.2737327282006427	0.43144404008303805	2.047816171681302	0.2161366396133647	0.6980873434108654	2.0817183280748788	0.079758669529264	0.35213254468955607	1.1467921877642118	0.07138350828788814	0.461809062396455	1.577600246527538	0.05066791712897326	0.571998254227826	2.018407500505211	0.06956209329300475	0.3487662883908026	2.019363985486468	0.03701057715118099	0.36153216565648094	2.012834647108152	0.06900305326548042	0.6585726078133806	2.081604464058605	0.1950709736387716	0.29934723371665856	0.5849959646494466	0.20304404111497334	0.24480972837355935	0.3516964000068455	0.19436529022269453	0.2245003437121531	0.47517507133598025	0.3471275167379761	0.36078575156058457	0.7047131298651109	0.37457698847733706	0.418259301494902	0.964257388761861	0.379723037984859	0.40801610418159956	1.2266887149735513	0.32972518953546376	0.3445093575512002	1.3309739824517963	0.3587990272507324	0.3323305776488519	1.339075330931751	0.3793093757584631	0.3883522573686292	1.3495064687918383	0.03820804921137778	0.35989377916857385	0.6903260684218868	0.002802254198458445	0.34235567260201205	0.9371332746656169	-0.01707390703612371	0.3398345707508057	1.1886292107163883	0.031936750032531686	0.31868075952106606	1.2950593943580617	0.004596384363634302	0.3436090308964909	1.312440867659416	-0.030759841235270168	0.3509022847249294	1.3110716974192889
572	9.694915254237289	0.28154883557765614	0.39213138713427853	1.1569233787974673	0.260212065143538	0.5031736769440236	1.5945821406918697	0.22896934019237367	0.637491856574513	2.033486174668369	0.21739489731922437	0.36818892042342477	2.0237343517586055	0.2735832521382682	0.4311185509925184	2.0475723681125033	0.2161039137810883	0.6980206337092834	2.081763180327546	0.0796995749875432	0.35249389484110843	1.14705017656687	0.07132286346567901	0.4617434841508472	1.5776433082202612	0.05064537561626573	0.5720018092425219	2.0184109196639364	0.0695517601403498	0.3488989714539882	2.019317105947971	0.036908135303020256	0.361844837839209	2.012929742649196	0.06905954114254442	0.6584960241731748	2.081919347107374	0.19507812664561489	0.2993615095176366	0.585030011095834	0.20307459826669164	0.24480980426026103	0.3517126271845568	0.1943657458679515	0.22448008297410613	0.47515761129953876	0.3470995281937918	0.3608147942082638	0.7046968449741807	0.37457746701165956	0.41839641526478794	0.9642859518433629	0.3761625054571057	0.3954692043769548	1.224054744119264	0.3298080531778949	0.34479121955776343	1.3310434483396028	0.3550069048283547	0.3463236671675212	1.3427593908468474	0.37949573589516267	0.3883473396272428	1.3495426049366817	0.038216184024438264	0.359935846927823	0.6903187613626129	-0.0013571950444466983	0.3404975775580281	0.9369841652492868	-0.01710391452262695	0.33998984549189465	1.1886940727143869	0.031944924998492503	0.31859557488675455	1.2950367393063205	0.004608468679616181	0.3435302110955403	1.3124981651948062	-0.03104891874364501	0.35243596721091497	1.3078031868895332
573	9.711864406779661	0.2776625013166104	0.4063352569795642	1.1598265087623776	0.260222332759768	0.5031883628690524	1.5946320645652252	0.22997799357423757	0.6356697799900329	2.0287261903178084	0.21741538243294675	0.3680596300978971	2.0234930420703354	0.27354688808548483	0.43079362259831644	2.047272941543543	0.21639409151855538	0.6952917095568936	2.085445053858887	0.07966708100062232	0.3525344710395217	1.1471030072590263	0.07743268931642772	0.44588205234331246	1.568523121760087	0.0506442802043429	0.5718525467174185	2.0182978324951355	0.06954993866134654	0.34838955385847026	2.019371152254767	0.036981881654486924	0.3612519908583482	2.013030374615584	0.06901196887724174	0.6583740706143334	2.081752025741577	0.19508407983222664	0.2993497726894631	0.5850505130879646	0.20298461552489996	0.24300142048305984	0.34868525839055753	0.1943501105952827	0.22446645222748854	0.4751629968049022	0.3470999055399205	0.3608891998352732	0.7047012271731179	0.3745499379609927	0.4184593896247512	0.9642046069623713	0.37969610688051814	0.4079921078679074	1.2265488733495706	0.3297533795399287	0.3446353572887347	1.3309747122091296	0.35496271875163166	0.3462791097363818	1.3427405999336743	0.38328870147927285	0.4013171013161556	1.3527383324860303	0.03785844345955432	0.36064786478544025	0.693446411199835	0.0027951789311028144	0.3424418839003502	0.9371983746008009	-0.01709232430149575	0.33977499344283524	1.1885880664428035	0.03187726777482799	0.31841427941205624	1.2949434917899947	0.004562655360435997	0.34328202066985597	1.3124196491356976	-0.031140531699100086	0.35217364409330404	1.3077480831626662
